<svg width="20" height="20" viewBox="0 0 20 20" fill="none" xmlns="http://www.w3.org/2000/svg">
<path d="M7.58925 4.53996C8.08759 3.08163 10.1026 3.03746 10.6934 4.40746L10.7434 4.54079L11.4159 6.50746C11.57 6.95849 11.8191 7.37122 12.1463 7.71781C12.4735 8.06441 12.8712 8.3368 13.3126 8.51663L13.4934 8.58413L15.4601 9.25579C16.9184 9.75413 16.9626 11.7691 15.5934 12.36L15.4601 12.41L13.4934 13.0825C13.0422 13.2365 12.6293 13.4855 12.2826 13.8127C11.9359 14.1399 11.6633 14.5376 11.4834 14.9791L11.4159 15.1591L10.7443 17.1266C10.2459 18.585 8.23092 18.6291 7.64092 17.26L7.58925 17.1266L6.91759 15.16C6.76357 14.7088 6.51456 14.2959 6.18737 13.9491C5.86018 13.6024 5.46241 13.3299 5.02092 13.15L4.84092 13.0825L2.87425 12.4108C1.41509 11.9125 1.37092 9.89746 2.74092 9.30746L2.87425 9.25579L4.84092 8.58413C5.29195 8.43001 5.70468 8.18095 6.05127 7.85377C6.39787 7.52658 6.67026 7.12887 6.85009 6.68746L6.91759 6.50746L7.58925 4.53996ZM9.16675 5.07829L8.49509 7.04496C8.26041 7.73271 7.87864 8.36105 7.37637 8.88621C6.87409 9.41137 6.26338 9.82073 5.58675 10.0858L5.37842 10.1616L3.41175 10.8333L5.37842 11.505C6.06617 11.7396 6.69451 12.1214 7.21967 12.6237C7.74483 13.126 8.15419 13.7367 8.41925 14.4133L8.49509 14.6216L9.16675 16.5883L9.83842 14.6216C10.0731 13.9339 10.4549 13.3055 10.9571 12.7804C11.4594 12.2552 12.0701 11.8459 12.7468 11.5808L12.9551 11.5058L14.9218 10.8333L12.9551 10.1616C12.2673 9.92695 11.639 9.54518 11.1138 9.04291C10.5887 8.54063 10.1793 7.92992 9.91426 7.25329L9.83925 7.04496L9.16675 5.07829ZM15.8334 1.66663C15.9893 1.66663 16.1421 1.71036 16.2744 1.79285C16.4067 1.87535 16.5132 1.99329 16.5818 2.13329L16.6218 2.23079L16.9134 3.08579L17.7693 3.37746C17.9255 3.43054 18.0625 3.52881 18.1628 3.65981C18.2631 3.79081 18.3223 3.94864 18.3328 4.11331C18.3434 4.27798 18.3048 4.44207 18.2219 4.58478C18.1391 4.7275 18.0158 4.84241 17.8676 4.91496L17.7693 4.95496L16.9143 5.24663L16.6226 6.10246C16.5694 6.25865 16.4711 6.39554 16.34 6.49579C16.209 6.59603 16.0511 6.65512 15.8865 6.66556C15.7218 6.676 15.5577 6.63733 15.4151 6.55444C15.2724 6.47155 15.1576 6.34818 15.0851 6.19996L15.0451 6.10246L14.7534 5.24746L13.8976 4.95579C13.7414 4.90271 13.6044 4.80445 13.5041 4.67345C13.4037 4.54245 13.3446 4.38461 13.334 4.21994C13.3235 4.05527 13.3621 3.89118 13.4449 3.74847C13.5277 3.60576 13.6511 3.49084 13.7993 3.41829L13.8976 3.37829L14.7526 3.08663L15.0443 2.23079C15.1004 2.06615 15.2068 1.92322 15.3483 1.82204C15.4898 1.72087 15.6595 1.66652 15.8334 1.66663Z" fill="black"/>
</svg>
