<svg width="30" height="30" viewBox="0 0 30 30" fill="none" xmlns="http://www.w3.org/2000/svg">
<path d="M25 2.5H5C3.625 2.5 2.5 3.625 2.5 5V25C2.5 26.375 3.625 27.5 5 27.5H25C26.375 27.5 27.5 26.375 27.5 25V5C27.5 3.625 26.375 2.5 25 2.5ZM10 22.5H7V12.5H10V22.5ZM8.5 11.125C7.4625 11.125 6.625 10.2875 6.625 9.25C6.625 8.2125 7.4625 7.375 8.5 7.375C9.5375 7.375 10.375 8.2125 10.375 9.25C10.375 10.2875 9.5375 11.125 8.5 11.125ZM23.5 22.5H20.5V17.2375C20.5 16.025 20.4875 14.4625 18.8125 14.4625C17.1125 14.4625 16.85 15.7875 16.85 17.15V22.5H13.875V12.5H16.725V13.925H16.7625C17.1625 13.175 18.1375 12.375 19.5875 12.375C22.625 12.375 23.5 14.3875 23.5 17.0125V22.5Z" fill="black"/>
</svg>
