<svg width="40" height="40" viewBox="0 0 40 40" fill="none" xmlns="http://www.w3.org/2000/svg">
<path d="M15.8333 26.6667C12.8056 26.6667 10.2433 25.6178 8.14667 23.52C6.05 21.4222 5.00111 18.86 5 15.8333C4.99889 12.8067 6.04778 10.2444 8.14667 8.14667C10.2456 6.04889 12.8078 5 15.8333 5C18.8589 5 21.4217 6.04889 23.5217 8.14667C25.6217 10.2444 26.67 12.8067 26.6667 15.8333C26.6667 17.0556 26.4722 18.2083 26.0833 19.2917C25.6944 20.375 25.1667 21.3333 24.5 22.1667L33.8333 31.5C34.1389 31.8056 34.2917 32.1944 34.2917 32.6667C34.2917 33.1389 34.1389 33.5278 33.8333 33.8333C33.5278 34.1389 33.1389 34.2917 32.6667 34.2917C32.1944 34.2917 31.8056 34.1389 31.5 33.8333L22.1667 24.5C21.3333 25.1667 20.375 25.6944 19.2917 26.0833C18.2083 26.4722 17.0556 26.6667 15.8333 26.6667ZM15.8333 23.8474C17.9167 23.8474 20.0411 22.9578 21.5 21.5C22.9589 20.0422 24.0011 18.0844 24 16C23.9989 13.9156 22.9567 11.4567 21.5 10C20.0433 8.54333 17.9189 7.50222 15.8333 7.5C13.7478 7.49778 11.4556 8.53889 10 10C8.54444 11.4611 7.50333 13.92 7.5 16C7.49667 18.08 8.53778 20.0378 10 21.5C11.4622 22.9622 13.7544 23.8518 15.8333 23.8474Z" fill="black"/>
</svg>
