<svg width="30" height="30" viewBox="0 0 30 30" fill="none" xmlns="http://www.w3.org/2000/svg">
<path d="M15 2.5C8.09644 2.5 2.5 8.09644 2.5 15C2.5 21.9036 8.09644 27.5 15 27.5C21.9036 27.5 27.5 21.9036 27.5 15C27.5 8.09644 21.9036 2.5 15 2.5ZM20.8886 10.6463L18.8479 20.5161C18.7009 21.2009 18.2891 21.3654 17.7098 21.038L14.6473 18.7754L13.1717 20.196C13.0098 20.3579 12.8732 20.4945 12.5458 20.4945L12.7679 17.3742L18.4844 12.2131C18.7321 11.9921 18.4292 11.8679 18.1018 12.0889L11.0268 16.5571L8.00446 15.6179C7.33482 15.4071 7.32036 14.9464 8.14732 14.6179L20.0554 10.0036C20.6161 9.79286 21.1071 10.1321 20.8886 10.6463Z" fill="black"/>
</svg>
