<svg width="30" height="30" viewBox="0 0 30 30" fill="none" xmlns="http://www.w3.org/2000/svg">
<path d="M15 2.5C8.09625 2.5 2.5 8.09625 2.5 15C2.5 21.9037 8.09625 27.5 15 27.5C21.9037 27.5 27.5 21.9037 27.5 15C27.5 8.09625 21.9037 2.5 15 2.5ZM23.9625 13.75H20.6125C20.3875 10.8125 19.4125 8.2875 18.0125 6.5875C21.2375 7.6625 23.55 10.4375 23.9625 13.75ZM15 25C13.3625 25 11.7 22.2625 11.125 18.75H18.875C18.3 22.2625 16.6375 25 15 25ZM10.8875 16.25H19.1125C19.025 17.1 18.8625 17.9125 18.625 18.75H11.375C11.1375 17.9125 10.975 17.1 10.8875 16.25ZM10.8875 13.75C10.975 12.9 11.1375 12.0875 11.375 11.25H18.625C18.8625 12.0875 19.025 12.9 19.1125 13.75H10.8875ZM11.9875 6.5875C10.5875 8.2875 9.6125 10.8125 9.3875 13.75H6.0375C6.45 10.4375 8.7625 7.6625 11.9875 6.5875ZM6.0375 16.25H9.3875C9.6125 19.1875 10.5875 21.7125 11.9875 23.4125C8.7625 22.3375 6.45 19.5625 6.0375 16.25ZM18.0125 23.4125C19.4125 21.7125 20.3875 19.1875 20.6125 16.25H23.9625C23.55 19.5625 21.2375 22.3375 18.0125 23.4125Z" fill="black"/>
</svg>
